<svg width="30" height="30" viewBox="0 0 30 30" fill="none" xmlns="http://www.w3.org/2000/svg">
<path fill-rule="evenodd" clip-rule="evenodd" d="M13.4174 0.0829715C9.8283 0.488189 6.65393 2.05947 4.14182 4.67414C-1.05953 10.0881 -1.40263 18.5843 3.34294 24.4586C3.87961 25.123 5.16586 26.3842 5.80223 26.87C10.3782 30.3641 16.4307 30.9813 21.5578 28.4769C23.134 27.7069 24.1667 26.9796 25.4471 25.7374C28.4959 22.78 30.1598 18.6272 29.9727 14.4426C29.7535 9.54163 27.3378 5.23368 23.2834 2.51338C20.4669 0.623687 16.7463 -0.292836 13.4174 0.0829715ZM15.409 3.78545L15.5932 3.96956V9.18735V14.4051H20.8109H26.0287L26.2128 14.5893C26.4565 14.8329 26.4565 15.1777 26.2128 15.4213L26.0287 15.6055H20.3949H14.7611L14.5769 15.4213L14.3928 15.2372V9.60337V3.96956L14.5769 3.78545C14.693 3.66931 14.8468 3.60126 14.993 3.60126C15.1391 3.60126 15.2929 3.66931 15.409 3.78545Z" fill="#004BA9"/>
</svg>
