<svg width="30" height="30" viewBox="0 0 30 30" fill="none" xmlns="http://www.w3.org/2000/svg">
<path fill-rule="evenodd" clip-rule="evenodd" d="M4.63619 0.110671C3.80867 0.327463 3.17822 0.76052 2.3715 1.66643C1.83485 2.26904 0.625948 3.80933 0.419551 4.15336C-0.0744316 4.97686 -0.138209 6.56017 0.260166 8.11018C0.804267 10.2272 2.21083 12.9319 4.08488 15.4648C5.26031 17.0533 6.14352 18.0401 8.66666 20.584C10.8347 22.7699 11.9508 23.8291 13.0666 24.7596C15.9526 27.1665 19.2692 29.0415 21.8583 29.7299C23.1771 30.0806 24.5803 30.0905 25.4759 29.7555C25.8309 29.6227 26.8349 28.8933 27.9318 27.9714C29.0696 27.0152 29.5123 26.4558 29.813 25.5943C29.9344 25.2465 29.9643 25.0469 29.9696 24.5491C29.9773 23.8097 29.8986 23.4618 29.565 22.7615C28.7548 21.0606 27.2907 19.4877 25.4765 18.3692C24.6224 17.8425 23.953 17.6333 23.1223 17.6333C22.2624 17.6333 21.2071 18.0207 20.1272 18.7331C19.838 18.9237 19.5118 19.1103 19.4023 19.1477C18.9805 19.2916 18.1585 19.1849 17.7596 18.9345C17.6765 18.8824 17.3447 18.6372 17.0223 18.3898C15.0657 16.8882 13.0377 14.8503 11.4916 12.8321C10.9561 12.133 10.7785 11.7035 10.7806 11.1119C10.7821 10.7003 10.8822 10.4367 11.2354 9.91456C11.8109 9.06374 12.25 8.03223 12.348 7.30068C12.4588 6.47401 12.2613 5.62783 11.7489 4.73282C10.8982 3.24704 9.64612 1.91692 8.22531 0.989562C6.8531 0.0939091 5.74034 -0.178561 4.63619 0.110671Z" fill="#004BA9"/>
</svg>
