<svg width="30" height="41" viewBox="0 0 30 41" fill="none" xmlns="http://www.w3.org/2000/svg">
<path fill-rule="evenodd" clip-rule="evenodd" d="M13.8577 0.0191171C7.47433 0.543374 2.11257 5.01843 0.473708 11.1898C0.1356 12.4627 0.00514584 13.5279 0.000182921 15.0555C-0.00446489 16.4992 0.0784871 17.3517 0.360428 18.758C1.57681 24.825 5.95269 31.9231 12.4819 38.4202C15.0023 40.9281 14.9977 40.9281 17.5181 38.4202C24.0473 31.9231 28.4232 24.825 29.6396 18.758C29.9215 17.3517 30.0045 16.4992 29.9998 15.0555C29.9949 13.5279 29.8644 12.4627 29.5263 11.1898C27.9994 5.44012 23.1947 1.09497 17.3401 0.169186C16.5574 0.0454284 14.5768 -0.0398864 13.8577 0.0191171ZM16.0635 10.9348C16.9767 11.1616 18.1283 12.0551 18.6091 12.91C19.0158 13.6332 19.1335 14.1057 19.1335 15.0161C19.1335 16.2947 18.7824 17.1363 17.8738 18.036C17.0618 18.8401 16.1579 19.209 15 19.209C13.8421 19.209 12.9382 18.8401 12.1262 18.036C11.2176 17.1363 10.8665 16.2947 10.8665 15.0161C10.8665 13.7517 11.2137 12.9068 12.0953 12.0252C13.1348 10.9857 14.6218 10.577 16.0635 10.9348Z" fill="#004BA9"/>
</svg>
