<svg width="30" height="22" viewBox="0 0 30 22" fill="none" xmlns="http://www.w3.org/2000/svg">
<path fill-rule="evenodd" clip-rule="evenodd" d="M2.45389 0.0972609C2.23873 0.149626 2.03602 0.209022 2.00341 0.229178C1.92573 0.277124 12.7588 10.3956 13.2369 10.7216C14.2552 11.4162 15.7415 11.4162 16.7635 10.7216C17.1459 10.4617 27.9955 0.367457 27.9891 0.277459C27.9872 0.249334 27.8737 0.181099 27.7371 0.125854C27.3712 -0.0221341 3.05712 -0.0495891 2.45389 0.0972609ZM0.275405 1.90841C0.00325327 2.50572 0.00104341 2.57664 3.89137e-05 10.7422C-0.00083165 17.5659 0.0122937 18.6304 0.10156 18.9731C0.40244 20.1281 1.29497 21.0177 2.45623 21.3202C3.03536 21.4711 26.9637 21.4711 27.5428 21.3202C28.7041 21.0177 29.5966 20.1281 29.8975 18.9731C29.9867 18.6306 30 17.5656 30 10.7622C30 2.75958 29.9948 2.58246 29.7404 1.98749L29.6317 1.73303L24.2074 6.79819C21.224 9.58405 18.5898 12.0241 18.3535 12.2205C17.4583 12.9649 16.2571 13.3832 15.0127 13.3841C13.5616 13.3851 12.3751 12.9151 11.2842 11.9072C10.9654 11.6127 1.39267 2.69677 0.563093 1.92167L0.357104 1.72922L0.275405 1.90841Z" fill="#004BA9"/>
</svg>
