<svg width="15" height="30" viewBox="0 0 15 30" fill="none" xmlns="http://www.w3.org/2000/svg">
<ellipse cx="7.07641" cy="27.1196" rx="2.69751" ry="2.87969" fill="#A6C36F"/>
<path d="M14.9968 8.2499C14.9968 12.698 7.50359 22.3357 7.50359 22.3357C7.50359 22.3357 0.0034726 12.698 0.0034726 8.2499C-0.0270788 7.17844 0.144216 6.11134 0.507212 5.11188C0.870208 4.11242 1.41751 3.20095 2.11666 2.43152C2.81581 1.66209 3.65255 1.05037 4.57731 0.632631C5.50206 0.21489 6.49597 -0.000366211 7.50011 -0.000366211C8.50425 -0.000366211 9.49816 0.21489 10.4229 0.632631C11.3477 1.05037 12.1844 1.66209 12.8836 2.43152C13.5827 3.20095 14.13 4.11242 14.493 5.11188C14.856 6.11134 15.0273 7.17844 14.9968 8.2499Z" fill="#A6C36F"/>
</svg>
