<svg width="15" height="30" viewBox="0 0 15 30" fill="none" xmlns="http://www.w3.org/2000/svg">
<ellipse cx="7.07641" cy="27.1192" rx="2.69751" ry="2.87969" fill="#E9BC19"/>
<path d="M14.9968 8.24953C14.9968 12.6977 7.50359 22.3353 7.50359 22.3353C7.50359 22.3353 0.0034726 12.6977 0.0034726 8.24953C-0.0270788 7.17807 0.144216 6.11097 0.507212 5.11151C0.870208 4.11205 1.41751 3.20058 2.11666 2.43115C2.81581 1.66172 3.65255 1.05001 4.57731 0.632265C5.50206 0.214524 6.49597 -0.000732422 7.50011 -0.000732422C8.50425 -0.000732422 9.49816 0.214524 10.4229 0.632265C11.3477 1.05001 12.1844 1.66172 12.8836 2.43115C13.5827 3.20058 14.13 4.11205 14.493 5.11151C14.856 6.11097 15.0273 7.17807 14.9968 8.24953Z" fill="#E9BC19"/>
</svg>
