<svg width="15" height="31" viewBox="0 0 15 31" fill="none" xmlns="http://www.w3.org/2000/svg">
<ellipse cx="7.07641" cy="28.1187" rx="2.69751" ry="2.87969" fill="#F87933"/>
<path d="M14.9968 9.24904C14.9968 13.6972 7.50359 23.3348 7.50359 23.3348C7.50359 23.3348 0.0034726 13.6972 0.0034726 9.24904C-0.0270788 8.17759 0.144216 7.11048 0.507212 6.11102C0.870208 5.11157 1.41751 4.2001 2.11666 3.43067C2.81581 2.66124 3.65255 2.04952 4.57731 1.63178C5.50206 1.21404 6.49597 0.998779 7.50011 0.998779C8.50425 0.998779 9.49816 1.21404 10.4229 1.63178C11.3477 2.04952 12.1844 2.66124 12.8836 3.43067C13.5827 4.2001 14.13 5.11157 14.493 6.11102C14.856 7.11048 15.0273 8.17759 14.9968 9.24904Z" fill="#F87933"/>
</svg>
