<svg width="15" height="31" viewBox="0 0 15 31" fill="none" xmlns="http://www.w3.org/2000/svg">
<ellipse cx="7.07641" cy="28.1183" rx="2.69751" ry="2.87969" fill="#54B5C9"/>
<path d="M14.9968 9.24868C14.9968 13.6968 7.50359 23.3345 7.50359 23.3345C7.50359 23.3345 0.0034726 13.6968 0.0034726 9.24868C-0.0270788 8.17722 0.144216 7.11012 0.507212 6.11066C0.870208 5.1112 1.41751 4.19973 2.11666 3.4303C2.81581 2.66087 3.65255 2.04915 4.57731 1.63141C5.50206 1.21367 6.49597 0.998413 7.50011 0.998413C8.50425 0.998413 9.49816 1.21367 10.4229 1.63141C11.3477 2.04915 12.1844 2.66087 12.8836 3.4303C13.5827 4.19973 14.13 5.1112 14.493 6.11066C14.856 7.11012 15.0273 8.17722 14.9968 9.24868Z" fill="#54B5C9"/>
</svg>
