<svg width="15" height="31" viewBox="0 0 15 31" fill="none" xmlns="http://www.w3.org/2000/svg">
<ellipse cx="7.07641" cy="28.118" rx="2.69751" ry="2.87969" fill="#DD3E5A"/>
<path d="M14.9968 9.24831C14.9968 13.6964 7.50359 23.3341 7.50359 23.3341C7.50359 23.3341 0.0034726 13.6964 0.0034726 9.24831C-0.0270788 8.17685 0.144216 7.10975 0.507212 6.11029C0.870208 5.11083 1.41751 4.19936 2.11666 3.42993C2.81581 2.6605 3.65255 2.04878 4.57731 1.63104C5.50206 1.2133 6.49597 0.998047 7.50011 0.998047C8.50425 0.998047 9.49816 1.2133 10.4229 1.63104C11.3477 2.04878 12.1844 2.6605 12.8836 3.42993C13.5827 4.19936 14.13 5.11083 14.493 6.11029C14.856 7.10975 15.0273 8.17685 14.9968 9.24831Z" fill="#DD3E5A"/>
</svg>
