<svg width="15" height="31" viewBox="0 0 15 31" fill="none" xmlns="http://www.w3.org/2000/svg">
<ellipse cx="7.07641" cy="28.1175" rx="2.69751" ry="2.87969" fill="#3153CB"/>
<path d="M14.9968 9.24782C14.9968 13.696 7.50359 23.3336 7.50359 23.3336C7.50359 23.3336 0.0034726 13.696 0.0034726 9.24782C-0.0270788 8.17636 0.144216 7.10926 0.507212 6.1098C0.870208 5.11035 1.41751 4.19887 2.11666 3.42945C2.81581 2.66002 3.65255 2.0483 4.57731 1.63056C5.50206 1.21281 6.49597 0.997559 7.50011 0.997559C8.50425 0.997559 9.49816 1.21281 10.4229 1.63056C11.3477 2.0483 12.1844 2.66002 12.8836 3.42945C13.5827 4.19887 14.13 5.11035 14.493 6.1098C14.856 7.10926 15.0273 8.17636 14.9968 9.24782Z" fill="#3153CB"/>
</svg>
